<?xml version="1.0" encoding="utf-8"?>
<!-- Generator: Adobe Illustrator 16.0.0, SVG Export Plug-In . SVG Version: 6.00 Build 0)  -->
<!DOCTYPE svg PUBLIC "-//W3C//DTD SVG 1.1//EN" "http://www.w3.org/Graphics/SVG/1.1/DTD/svg11.dtd">
<svg version="1.1" id="Layer_1" xmlns="http://www.w3.org/2000/svg" xmlns:xlink="http://www.w3.org/1999/xlink" x="0px" y="0px"
	 width="46.744px" height="50.609px" viewBox="0 0 46.744 50.609" enable-background="new 0 0 46.744 50.609" xml:space="preserve">
<g>
	<g>
		<path fill="none" stroke="#E43A39" stroke-width="0.5" stroke-miterlimit="10" d="M43.369,43.298H3.358
			c-1.1,0-2.005,0.906-2.005,2.005c0,1.101,0.905,2.007,2.005,2.007h40.011c1.1,0,2.004-0.906,2.004-2.007
			C45.367,44.204,44.469,43.298,43.369,43.298L43.369,43.298z M43.369,43.298"/>
		<path fill="none" stroke="#E43A39" stroke-width="0.5" stroke-miterlimit="10" d="M5.861,38.098c-1.115,0-2.005,0.905-2.005,2.005
			c0,1.101,0.89,2.005,2.005,2.005h35.006c1.1,0,2.006-0.904,2.006-2.005c0-1.1-0.906-2.005-2.006-2.005h-0.498v-18h0.498
			c0.557,0,1.002-0.452,1.002-0.995c0-0.558-0.445-1.01-1.002-1.01H5.861c-0.558,0-0.995,0.452-0.995,1.01
			c0,0.542,0.438,0.995,0.995,0.995h0.498v18H5.861z M36.359,20.098v18h-6v-18H36.359z M26.363,20.098v18h-6v-18H26.363z
			 M10.361,20.098h6v18h-6V20.098z M10.361,20.098"/>
		<path fill="none" stroke="#E43A39" stroke-width="0.5" stroke-miterlimit="10" d="M3.358,16.299h40.026
			c1.107,0,2.006-0.89,2.006-2.005c0-0.875-0.568-1.613-1.359-1.885L24.178,3.47c-0.513-0.226-1.115-0.226-1.628,0l-20.013,9
			c-0.859,0.392-1.334,1.327-1.139,2.246C1.595,15.635,2.409,16.299,3.358,16.299L3.358,16.299z M3.358,16.299"/>
	</g>
</g>
</svg>
