<?xml version="1.0" encoding="utf-8"?>
<!-- Generator: Adobe Illustrator 16.0.0, SVG Export Plug-In . SVG Version: 6.00 Build 0)  -->
<!DOCTYPE svg PUBLIC "-//W3C//DTD SVG 1.1//EN" "http://www.w3.org/Graphics/SVG/1.1/DTD/svg11.dtd">
<svg version="1.1" id="Layer_1" xmlns="http://www.w3.org/2000/svg" xmlns:xlink="http://www.w3.org/1999/xlink" x="0px" y="0px"
	 width="46.744px" height="50.609px" viewBox="0 0 46.744 50.609" enable-background="new 0 0 46.744 50.609" xml:space="preserve">
<g>
	<g>
		<path fill-rule="evenodd" clip-rule="evenodd" fill="none" stroke="#E43A39" stroke-width="0.5" stroke-miterlimit="10" d="
			M26.148,47.565c-1.852,0-3.708,0-5.563,0c-0.113-0.018-0.228-0.049-0.34-0.055c-2.326-0.159-4.663-0.228-6.977-0.499
			c-2.131-0.249-4.251-0.67-6.355-1.108c-1.431-0.306-2.811-0.805-4.035-1.645c-0.787-0.543-1.258-1.211-1.18-2.247
			c0.137-1.855,0.875-3.434,2.037-4.834c1.742-2.101,3.997-3.489,6.469-4.562c0.113-0.053,0.352,0.039,0.459,0.144
			c2.392,2.299,5.197,3.835,8.414,4.644c0.192,0.046,0.412,0.213,0.516,0.384c1.563,2.646,5.188,2.943,7.132,0.566
			c1.532-1.863,1.257-4.386-0.37-5.888c-1.811-1.677-4.462-1.61-6.094,0.098c-0.23,0.246-0.414,0.261-0.705,0.172
			c-2.109-0.625-3.959-1.69-5.526-3.23c-3.544-3.483-4.649-7.726-3.788-12.529c0.461-2.553,1.68-4.77,3.509-6.611
			c3.065-3.09,6.806-4.408,11.123-3.982c2.479,0.245,4.728,1.174,6.702,2.725c3.038,2.385,4.791,5.518,5.147,9.35
			c0.352,3.805-0.77,7.266-2.873,10.417c-0.515,0.764-1.113,1.472-1.674,2.204c0.019,0.016,0.037,0.042,0.061,0.046
			c0.123,0.04,0.253,0.07,0.378,0.104c3.104,0.861,6.046,2.082,8.564,4.15c1.916,1.576,3.354,3.462,3.795,5.984
			c0.252,1.438-0.064,2.226-1.303,3.017c-1.257,0.813-2.666,1.25-4.098,1.604c-3.485,0.86-7.033,1.238-10.611,1.41
			C28.025,47.438,27.087,47.508,26.148,47.565z"/>
		<path fill-rule="evenodd" clip-rule="evenodd" fill="none" stroke="#E43A39" stroke-width="0.5" stroke-miterlimit="10" d="
			M24.672,3.044c0.466,0.079,0.934,0.158,1.401,0.242c4.68,0.797,8.359,3.19,11.065,7.06c1.506,2.155,2.413,4.567,2.743,7.185
			c0.086,0.711,0.13,1.43,0.203,2.174c-0.57,0-1.055,0-1.576,0c-0.062-0.662-0.091-1.324-0.184-1.977
			c-0.674-4.66-3.004-8.271-6.958-10.8c-2.949-1.888-6.203-2.631-9.664-2.216c-4.798,0.572-8.52,2.951-11.139,7.02
			c-1.262,1.955-2.01,4.113-2.221,6.416c-0.402,4.414,0.838,8.328,3.809,11.648c2.203,2.464,4.949,4.007,8.173,4.705
			c0.3,0.064,0.446,0.013,0.603-0.276c0.669-1.211,2.023-1.707,3.355-1.271c1.273,0.416,2.012,1.628,1.865,3.065
			c-0.121,1.198-1.205,2.259-2.449,2.396c-1.359,0.154-2.604-0.65-3.015-1.965c-0.075-0.248-0.198-0.334-0.444-0.386
			c-4.285-0.858-7.746-3.051-10.344-6.56c-1.682-2.274-2.687-4.834-3.053-7.651c-0.453-3.498,0.154-6.806,1.791-9.915
			c1.624-3.08,4.014-5.426,7.107-7.037c1.907-0.993,3.939-1.576,6.078-1.784c0.084-0.009,0.164-0.046,0.244-0.073
			C22.933,3.044,23.802,3.044,24.672,3.044z"/>
	</g>
</g>
</svg>
