<?xml version="1.0" encoding="utf-8"?>
<!-- Generator: Adobe Illustrator 16.0.0, SVG Export Plug-In . SVG Version: 6.00 Build 0)  -->
<!DOCTYPE svg PUBLIC "-//W3C//DTD SVG 1.1//EN" "http://www.w3.org/Graphics/SVG/1.1/DTD/svg11.dtd">
<svg version="1.1" id="Layer_1" xmlns="http://www.w3.org/2000/svg" xmlns:xlink="http://www.w3.org/1999/xlink" x="0px" y="0px"
	 width="46.744px" height="50.609px" viewBox="0 0 46.744 50.609" enable-background="new 0 0 46.744 50.609" xml:space="preserve">
<g>
	<g>
		<path fill-rule="evenodd" clip-rule="evenodd" fill="none" stroke="#E43A39" stroke-width="0.5" stroke-miterlimit="10" d="
			M17.159,46.789c-0.729-0.111-1.463-0.195-2.187-0.334c-5.148-0.971-8.898-3.828-11.314-8.453c-0.826-1.58-1.396-3.252-1.719-5.01
			c-0.27-1.457,0.59-2.777,2.027-3.072c1.502-0.309,2.926,0.566,3.208,2.023c0.388,1.99,1.116,3.826,2.317,5.467
			c1.734,2.367,4.092,3.686,6.984,4.104c2.75,0.396,5.441,0.027,8.077-0.715c0.751-0.211,1.397-0.793,2.163-1.246
			c-0.244-0.25-0.415-0.465-0.624-0.633c-1.177-0.947-2.536-1.57-3.907-2.166c-0.133-0.057-0.303-0.049-0.455-0.041
			c-2.777,0.119-5.557,0.227-8.334,0.371c-1.833,0.098-3.252-1.527-2.779-3.232c0.262-0.941,1.142-1.74,2.137-1.824
			c1.712-0.143,3.427-0.307,5.144-0.33c5.593-0.07,11.185-0.084,16.776-0.111c1.348-0.01,2.617,0.404,3.875,0.811
			c2.002,0.639,3.986,1.361,5.975,2.047c0.115,0.041,0.219,0.119,0.33,0.176c0,2.908,0,5.818,0,8.73
			c-0.26,0.025-0.518,0.072-0.777,0.08c-1.672,0.041-3.355-0.029-5.016,0.131c-2.438,0.232-4.869,0.602-7.295,0.973
			c-1.47,0.221-2.93,0.537-4.386,0.844c-1.783,0.373-3.56,0.791-5.343,1.162c-0.608,0.129-1.238,0.17-1.856,0.25
			C19.174,46.789,18.165,46.789,17.159,46.789z"/>
		<path fill-rule="evenodd" clip-rule="evenodd" fill="none" stroke="#E43A39" stroke-width="0.5" stroke-miterlimit="10" d="
			M23.369,28.992c-3.693,0-7.385-0.006-11.078,0.008c-0.404,0-0.532-0.111-0.52-0.518c0.117-4.114,1.5-7.684,4.572-10.486
			c2.206-2.015,4.838-2.985,7.84-2.747c2.804,0.222,5.124,1.486,7.019,3.531c2.161,2.334,3.331,5.125,3.663,8.276
			c0.053,0.484,0.049,0.975,0.096,1.463c0.035,0.373-0.107,0.48-0.475,0.48C30.78,28.986,27.075,28.992,23.369,28.992z"/>
		<path fill-rule="evenodd" clip-rule="evenodd" fill="none" stroke="#E43A39" stroke-width="0.5" stroke-miterlimit="10" d="
			M23.382,3.82c2.708,0.003,4.908,2.205,4.904,4.909c-0.003,2.694-2.217,4.907-4.911,4.903c-2.705,0-4.932-2.209-4.924-4.893
			C18.454,6.008,20.648,3.82,23.382,3.82z"/>
	</g>
</g>
</svg>
