<?xml version="1.0" encoding="utf-8"?>
<!-- Generator: Adobe Illustrator 16.0.0, SVG Export Plug-In . SVG Version: 6.00 Build 0)  -->
<!DOCTYPE svg PUBLIC "-//W3C//DTD SVG 1.1//EN" "http://www.w3.org/Graphics/SVG/1.1/DTD/svg11.dtd">
<svg version="1.1" id="Layer_1" xmlns="http://www.w3.org/2000/svg" xmlns:xlink="http://www.w3.org/1999/xlink" x="0px" y="0px"
	 width="46.744px" height="50.609px" viewBox="0 0 46.744 50.609" enable-background="new 0 0 46.744 50.609" xml:space="preserve">
<g>
	<g>
		<path fill-rule="evenodd" clip-rule="evenodd" fill="none" stroke="#E43A39" stroke-width="0.5" stroke-miterlimit="10" d="
			M19.674,50.212c-0.553-0.32-1.172-0.563-1.643-0.977c-0.695-0.609-0.871-1.486-0.871-2.392c0.002-3.599,0-7.198,0-10.798
			c0-0.191,0-0.383,0-0.537c-1.797-0.393-3.542-0.79-5.297-1.146c-0.506-0.104-0.685-0.37-0.75-0.849
			c-0.246-1.813-0.518-3.621-0.801-5.427c-0.023-0.146-0.191-0.327-0.335-0.387c-1.671-0.705-2.117-2.575-0.876-3.895
			c0.371-0.397,0.543-0.744,0.391-1.28c-0.117-0.417-0.14-0.86-0.203-1.293c-0.092-0.626,0.159-0.844,0.781-0.667
			c0.436,0.124,0.878,0.232,1.297,0.397c0.33,0.13,0.529,0.032,0.761-0.202c1.619-1.636,3.265-3.247,4.874-4.895
			c0.773-0.793,1.67-1.19,2.774-1.146c0.534,0.021,1.07,0.016,1.605,0c0.379-0.01,0.595,0.135,0.706,0.513
			c0.174,0.595,0.684,0.933,1.322,0.937c0.664,0.004,1.115-0.346,1.371-0.957c0.083-0.199,0.33-0.451,0.514-0.461
			c0.775-0.049,1.556-0.035,2.333-0.005c0.914,0.034,1.602,0.519,2.223,1.153c1.553,1.588,3.14,3.143,4.683,4.74
			c0.359,0.371,0.682,0.459,1.145,0.268c0.373-0.151,0.768-0.253,1.156-0.357c0.561-0.148,0.801,0.072,0.719,0.651
			c-0.074,0.513-0.146,1.026-0.244,1.534c-0.068,0.357-0.006,0.623,0.266,0.909c1.281,1.353,0.936,3.107-0.725,3.922
			c-0.15,0.073-0.287,0.299-0.314,0.473c-0.287,1.823-0.561,3.647-0.809,5.475c-0.066,0.482-0.246,0.745-0.752,0.849
			c-1.754,0.357-3.5,0.754-5.296,1.146c0,0.154,0,0.346,0,0.537c0,3.421-0.045,6.843,0.016,10.264
			c0.035,1.926-0.594,3.309-2.531,3.902c-0.387,0-0.777,0-1.166,0c-0.4-0.198-0.84-0.347-1.197-0.604
			c-0.908-0.657-1.263-1.586-1.257-2.697c0.015-3.404,0.007-6.806,0.002-10.21c0-0.167-0.036-0.333-0.058-0.5
			c-0.053,0.002-0.106,0.005-0.16,0.008c-0.012,0.181-0.031,0.361-0.031,0.542c-0.002,3.37-0.009,6.742,0.002,10.112
			c0.004,0.912-0.17,1.773-0.867,2.385c-0.459,0.402-1.055,0.647-1.59,0.964C20.452,50.212,20.063,50.212,19.674,50.212z
			 M34.978,32.438c-0.23,0.049-0.398,0.088-0.568,0.12c-1.844,0.34-3.685,0.681-5.531,1.015c-0.287,0.053-0.584,0.039-0.635-0.336
			c-0.053-0.391,0.236-0.473,0.547-0.53c1.906-0.354,3.808-0.735,5.718-1.063c0.543-0.094,0.678-0.374,0.744-0.86
			c0.258-1.89,0.555-3.776,0.834-5.664c0.172-1.161,0.34-2.325,0.518-3.554c-0.35,0.092-0.637,0.191-0.932,0.239
			c-0.346,0.056-0.471,0.255-0.512,0.58c-0.197,1.54-0.406,3.081-0.611,4.618c-0.098,0.723-0.195,1.443-0.295,2.165
			c-0.039,0.28-0.152,0.521-0.48,0.5c-0.334-0.02-0.414-0.261-0.389-0.556c0.008-0.08,0.006-0.163,0.018-0.243
			c0.211-1.538,0.428-3.075,0.635-4.614c0.092-0.676,0.17-1.353,0.264-2.078c-8.128,1.971-16.11,1.77-24.001-0.606
			c-0.133,0.867,0.229,1.263,0.99,1.327c0.096,0.008,0.186,0.061,0.279,0.08c1.496,0.338,2.994,0.674,4.492,1.01
			c0.311,0.07,0.588,0.187,0.49,0.574c-0.087,0.346-0.352,0.353-0.658,0.282c-1.447-0.337-2.898-0.659-4.348-0.989
			c-0.322-0.072-0.642-0.15-1.008-0.237c0.099,0.684,0.186,1.29,0.276,1.894c0.382,2.543,0.769,5.086,1.139,7.631
			c0.038,0.268,0.13,0.378,0.394,0.444c4.089,1.024,8.232,1.507,12.453,1.374c3.3-0.102,6.535-0.592,9.729-1.394
			c0.121-0.03,0.283-0.131,0.313-0.229C34.917,33.063,34.933,32.771,34.978,32.438z M23.412,22.735
			c1.896-0.148,3.8-0.294,5.703-0.465c0.123-0.01,0.326-0.223,0.328-0.342c0.02-1.475,0.039-2.949-0.006-4.424
			c-0.035-1.117-0.713-1.787-1.832-1.881c-0.547-0.049-1.102-0.043-1.65-0.008c-0.179,0.012-0.416,0.15-0.508,0.303
			c-0.808,1.336-2.859,1.587-3.759,0.333c-0.448-0.622-0.905-0.69-1.526-0.653c-0.273,0.017-0.551-0.01-0.825,0.01
			c-1.205,0.081-1.915,0.785-1.938,1.988c-0.027,1.426-0.002,2.854-0.014,4.278c-0.002,0.293,0.111,0.397,0.393,0.419
			C19.649,22.435,21.521,22.587,23.412,22.735z M28.777,44.604c0-2.979,0-5.973,0-9.016c-0.193,0.018-0.355,0.033-0.537,0.052
			c0,0.737,0.025,1.418-0.02,2.096c-0.01,0.166-0.242,0.317-0.373,0.476c-0.158-0.154-0.346-0.287-0.461-0.467
			c-0.066-0.104-0.016-0.284-0.016-0.43c0-0.529,0-1.058,0-1.603c-1.021,0.061-1.966,0.117-2.949,0.175c0,0.247,0,0.439,0,0.632
			c0,3.341,0,6.681,0.002,10.02c0,0.293-0.008,0.585,0.016,0.875c0.094,1.129,1.18,2.015,2.343,1.921
			c1.156-0.092,2.023-1.072,1.953-2.252c-0.158,0-0.318,0-0.479,0c-0.664,0-1.328,0.005-1.994-0.002
			c-0.348-0.004-0.807,0.082-0.826-0.43c-0.021-0.542,0.453-0.426,0.792-0.444c0.146-0.007,0.292-0.001,0.438-0.001
			c0.693,0,1.385,0,2.096,0c0-0.253,0-0.449,0-0.633c-0.406-0.12-1.043,0.167-1.064-0.45C27.677,44.397,28.402,44.804,28.777,44.604
			z M18.061,46.184c0.193,0.009,0.336,0.02,0.479,0.021c0.777,0.002,1.556,0.002,2.333,0.002c0.283,0,0.535,0.064,0.545,0.407
			c0.012,0.366-0.246,0.456-0.549,0.467c-0.179,0.005-0.357,0.002-0.535,0.002c-0.756,0-1.511,0-2.27,0
			c0.088,1.38,0.963,2.261,2.183,2.258c1.247-0.002,2.164-0.963,2.167-2.307c0.008-3.564,0.003-7.128,0.002-10.693
			c0-0.143-0.014-0.285-0.022-0.475c-0.923-0.048-1.817-0.096-2.755-0.145c0,0.231,0,0.407,0,0.583c0,1.571,0.001,3.144-0.002,4.715
			c-0.002,0.176,0.012,0.378-0.065,0.521c-0.071,0.13-0.26,0.276-0.394,0.272c-0.131-0.004-0.308-0.161-0.374-0.296
			c-0.073-0.147-0.054-0.347-0.054-0.523c-0.003-1.604-0.002-3.209-0.002-4.813c0-0.173,0-0.346,0-0.552
			c-0.26-0.013-0.46-0.021-0.688-0.033C18.061,39.142,18.061,42.635,18.061,46.184z M16.447,21.351c0-1.188,0-2.395,0-3.545
			c-0.599,0.604-1.197,1.208-1.798,1.811C15.227,20.173,15.839,20.765,16.447,21.351z M30.375,21.43
			c0.65-0.684,1.23-1.294,1.753-1.841c-0.603-0.629-1.167-1.216-1.753-1.83C30.375,18.96,30.375,20.141,30.375,21.43z
			 M32.802,20.151c-0.543,0.57-1.082,1.135-1.619,1.697c0.018,0.037,0.037,0.072,0.053,0.108c0.908-0.195,1.816-0.388,2.775-0.595
			C33.567,20.919,33.196,20.548,32.802,20.151z M12.854,21.374c0.9,0.191,1.773,0.374,2.715,0.571
			c-0.616-0.606-1.153-1.134-1.73-1.702c-0.279,0.295-0.592,0.62-0.9,0.949C12.908,21.223,12.898,21.272,12.854,21.374z
			 M9.766,24.425c-0.775,0.748-0.604,1.857,0.342,2.292C9.993,25.948,9.882,25.204,9.766,24.425z M37.073,24.429
			c-0.109,0.74-0.207,1.415-0.316,2.157C37.563,26.038,37.683,25.208,37.073,24.429z"/>
		<path fill-rule="evenodd" clip-rule="evenodd" fill="none" stroke="#E43A39" stroke-width="0.5" stroke-miterlimit="10" d="
			M24.148,0.397c0.946,0.219,1.877,0.463,2.712,0.996c1.18,0.756,2.061,1.756,2.602,3.051c0.094,0.223,0.15,0.422,0.482,0.432
			c0.77,0.023,1.211,0.44,1.246,1.088c0.033,0.609-0.357,1.046-1.082,1.213c-0.09,0.021-0.182,0.035-0.197,0.037
			c-0.041,0.869-0.014,1.697-0.137,2.504c-0.154,1.004-0.744,1.77-1.582,2.348c-0.262,0.182-0.51,0.402-0.709,0.648
			c-2.044,2.533-6.073,2.543-8.118,0.014c-0.151-0.188-0.307-0.393-0.506-0.515c-1.513-0.923-2.032-2.313-1.935-4.009
			c0.018-0.307,0.033-0.612,0.051-0.95c-0.145-0.044-0.277-0.087-0.412-0.122c-0.601-0.158-0.961-0.623-0.916-1.188
			c0.047-0.603,0.478-1.041,1.115-1.063c0.322-0.011,0.471-0.113,0.599-0.416c0.931-2.19,2.588-3.497,4.915-3.969
			c0.107-0.021,0.211-0.064,0.314-0.098C23.111,0.397,23.631,0.397,24.148,0.397z M27.993,7.509c-1.399-0.074-8.31-0.25-8.625,0
			c-0.108,0.085-0.454-0.113-0.444,0c0.069,0.8,0.177,2.541,0.383,3.311c0.687,3.055,5.235,3.07,6.559,2.18
			C27.294,12.034,28.062,9.27,27.993,7.509z M24.326,1.343c0,0.275,0,0.468,0,0.66c-0.002,0.389,0.018,0.779-0.008,1.166
			c-0.047,0.689-0.529,1.07-1.135,0.922c-0.41-0.101-0.656-0.454-0.669-1.006c-0.011-0.564-0.003-1.129-0.003-1.696
			c-0.896,0.077-0.896,0.077-0.896,0.896c0,0.453-0.018,0.908,0.006,1.359c0.028,0.561-0.176,0.965-0.749,1.191
			c1.714,0,3.378,0,5.114,0c-0.575-0.221-0.781-0.588-0.769-1.121c0.019-0.709,0.005-1.42,0.005-2.144
			C24.922,1.494,24.66,1.428,24.326,1.343z M23.391,6.319c0.956,0,1.913,0,2.869,0c1.134,0,2.269,0.015,3.404-0.013
			c0.211-0.005,0.59-0.163,0.6-0.274c0.031-0.401-0.336-0.263-0.568-0.295c-0.016-0.002-0.033-0.001-0.049-0.001
			c-4.15,0-8.3,0-12.45,0.001c-0.13,0-0.27-0.025-0.386,0.017c-0.104,0.036-0.262,0.159-0.252,0.226
			c0.015,0.112,0.119,0.256,0.225,0.305c0.122,0.058,0.285,0.034,0.431,0.035C19.273,6.319,21.331,6.319,23.391,6.319z
			 M19.776,2.587c-0.749,0.646-1.302,1.348-1.619,2.264c0.821,0,1.575,0,2.43,0C19.465,4.367,19.98,3.4,19.776,2.587z M27.056,2.606
			c-0.186,0.825,0.293,1.768-0.768,2.234c0.829,0,1.581,0,2.389,0C28.337,3.942,27.802,3.245,27.056,2.606z"/>
		<path fill-rule="evenodd" clip-rule="evenodd" fill="none" stroke="#E43A39" stroke-width="0.5" stroke-miterlimit="10" d="
			M34.978,32.438c-0.045,0.334-0.061,0.625-0.135,0.899c-0.029,0.099-0.191,0.199-0.313,0.229c-3.195,0.802-6.429,1.292-9.729,1.394
			c-4.221,0.133-8.364-0.35-12.453-1.374c-0.264-0.066-0.355-0.177-0.394-0.444c-0.37-2.545-0.757-5.088-1.139-7.631
			c-0.091-0.604-0.178-1.21-0.276-1.894c0.366,0.087,0.686,0.165,1.008,0.237c1.449,0.33,2.9,0.652,4.348,0.989
			c0.307,0.07,0.571,0.063,0.658-0.282c0.098-0.388-0.18-0.504-0.49-0.574c-1.498-0.336-2.996-0.672-4.492-1.01
			c-0.094-0.02-0.184-0.072-0.279-0.08c-0.761-0.064-1.123-0.46-0.99-1.327c7.891,2.376,15.873,2.577,24.001,0.606
			c-0.094,0.726-0.172,1.402-0.264,2.078c-0.207,1.539-0.424,3.076-0.635,4.614c-0.012,0.08-0.01,0.163-0.018,0.243
			c-0.025,0.295,0.055,0.536,0.389,0.556c0.328,0.021,0.441-0.22,0.48-0.5c0.1-0.722,0.197-1.442,0.295-2.165
			c0.205-1.537,0.414-3.078,0.611-4.618c0.041-0.325,0.166-0.524,0.512-0.58c0.295-0.048,0.582-0.147,0.932-0.239
			c-0.178,1.229-0.346,2.393-0.518,3.554c-0.279,1.888-0.576,3.774-0.834,5.664c-0.066,0.486-0.201,0.767-0.744,0.86
			c-1.91,0.327-3.812,0.708-5.718,1.063c-0.311,0.058-0.6,0.14-0.547,0.53c0.051,0.375,0.348,0.389,0.635,0.336
			c1.846-0.334,3.687-0.675,5.531-1.015C34.579,32.525,34.747,32.486,34.978,32.438z M17.691,24.245
			c-0.391-0.049-0.723-0.075-0.769,0.359c-0.034,0.332,0.214,0.451,0.491,0.481c0.961,0.108,1.925,0.203,2.888,0.301
			c0.321,0.032,0.567-0.095,0.581-0.427c0.015-0.314-0.223-0.423-0.519-0.449C19.449,24.429,18.535,24.331,17.691,24.245z
			 M14.171,31.048c0.438,0,0.88,0.038,1.31-0.019c0.18-0.025,0.331-0.256,0.496-0.394c-0.154-0.15-0.302-0.426-0.463-0.435
			c-0.871-0.043-1.747-0.025-2.622-0.019c-0.297,0.003-0.55,0.163-0.478,0.466c0.039,0.162,0.309,0.354,0.496,0.381
			C13.323,31.086,13.75,31.048,14.171,31.048z M26.146,33.834c0.628-0.047,1.074-0.04,1.494-0.134
			c0.178-0.04,0.307-0.297,0.457-0.456c-0.176-0.133-0.344-0.368-0.525-0.378c-0.447-0.025-0.9,0.052-1.351,0.093
			c-0.289,0.027-0.559,0.165-0.475,0.47C25.8,33.627,26.074,33.766,26.146,33.834z"/>
		<path fill-rule="evenodd" clip-rule="evenodd" fill="none" stroke="#E43A39" stroke-width="0.5" stroke-miterlimit="10" d="
			M17.715,24.284c0.842,0.085,1.756,0.184,2.672,0.267c0.296,0.026,0.533,0.134,0.519,0.448c-0.015,0.332-0.26,0.461-0.582,0.428
			c-0.962-0.099-1.925-0.193-2.888-0.3c-0.275-0.03-0.525-0.151-0.49-0.481C16.99,24.209,17.322,24.235,17.715,24.284z"/>
		<path fill-rule="evenodd" clip-rule="evenodd" fill="none" stroke="#E43A39" stroke-width="0.25" stroke-miterlimit="10" d="
			M14.162,31.046c-0.422,0-0.848,0.04-1.262-0.018c-0.188-0.025-0.457-0.219-0.496-0.381c-0.07-0.304,0.182-0.462,0.479-0.465
			c0.874-0.008,1.75-0.025,2.623,0.019c0.16,0.008,0.307,0.283,0.461,0.435c-0.164,0.137-0.316,0.367-0.496,0.393
			C15.041,31.086,14.599,31.046,14.162,31.046z"/>
		<path fill-rule="evenodd" clip-rule="evenodd" fill="none" stroke="#E43A39" stroke-width="0.25" stroke-miterlimit="10" d="
			M26.168,33.848c-0.072-0.069-0.348-0.208-0.401-0.406c-0.083-0.305,0.188-0.443,0.477-0.47c0.45-0.041,0.903-0.117,1.35-0.093
			c0.182,0.011,0.35,0.245,0.523,0.378c-0.148,0.158-0.277,0.415-0.455,0.456C27.242,33.808,26.798,33.799,26.168,33.848z"/>
		<path fill-rule="evenodd" clip-rule="evenodd" fill="none" stroke="#E43A39" stroke-width="0.5" stroke-miterlimit="10" d="
			M27.333,18.405c0-0.52,0-0.971,0-1.421c0-0.321,0.004-0.667,0.43-0.683c0.439-0.014,0.447,0.331,0.445,0.653
			c-0.004,0.454,0,0.907,0,1.42c0.664,0.001,0.598,0.467,0.672,0.94c0.193,1.211-0.273,1.988-1.338,2.533
			c-0.395,0.201-0.65,0.223-1.057,0.015c-1.063-0.546-1.499-1.317-1.338-2.53c0.114-0.874,0.062-0.926,0.948-0.928
			C26.484,18.405,26.871,18.405,27.333,18.405z M26.09,19.329c-0.144,1.054-0.1,1.179,0.691,1.637
			c0.115,0.067,0.34,0.063,0.459-0.008c0.803-0.471,0.859-0.615,0.695-1.629C27.333,19.329,26.726,19.329,26.09,19.329z"/>
	</g>
</g>
</svg>
