<?xml version="1.0" encoding="utf-8"?>
<!-- Generator: Adobe Illustrator 16.0.0, SVG Export Plug-In . SVG Version: 6.00 Build 0)  -->
<!DOCTYPE svg PUBLIC "-//W3C//DTD SVG 1.1//EN" "http://www.w3.org/Graphics/SVG/1.1/DTD/svg11.dtd">
<svg version="1.1" id="Layer_1" xmlns="http://www.w3.org/2000/svg" xmlns:xlink="http://www.w3.org/1999/xlink" x="0px" y="0px"
	 width="46.744px" height="50.609px" viewBox="0 0 46.744 50.609" enable-background="new 0 0 46.744 50.609" xml:space="preserve">
<g>
	<g>
		<path fill-rule="evenodd" clip-rule="evenodd" fill="none" stroke="#E43A39" stroke-width="0.5" stroke-miterlimit="10" d="
			M35.875,39.374c-5.016,0-9.978,0-15.023,0c0.693-0.567,1.16-1.208,1.338-2.022c0.065-0.306,0.123-0.624,0.123-0.938
			c0.007-3.855,0.007-7.716,0-11.574c0-0.2-0.072-0.415-0.174-0.588c-0.461-0.778-0.949-1.548-1.422-2.314
			c0.705-0.93,0.688-1.609-0.058-2.157c-0.196-0.146-0.427-0.258-0.655-0.354c-0.239-0.104-0.618-0.104-0.713-0.274
			c-0.133-0.232-0.062-0.583-0.064-0.884c-0.004-1.389,0-2.775,0-4.165c0-0.144,0-0.284,0-0.473c0.934,0,1.842-0.026,2.749,0.013
			c0.46,0.02,0.62-0.12,0.766-0.573c0.79-2.443,2.526-3.938,4.978-4.518c2.954-0.698,5.542,0.026,7.598,2.342
			c0.584,0.661,1.002,1.432,1.201,2.292c0.082,0.375,0.253,0.459,0.616,0.453c1.067-0.026,2.135-0.01,3.233-0.01
			c0,4.018,0,8.013,0,12.036c-0.538,0.084-1.1,0.143-1.647,0.26c-0.559,0.117-1.159,0.287-1.457,0.799
			c-0.69,1.188-1.469,2.308-1.418,3.835c0.101,2.786,0.03,5.577,0.03,8.366C35.875,39.065,35.875,39.208,35.875,39.374z
			 M24.271,13.603c3.576,0,7.123,0,10.672,0c-0.357-1.982-2.816-3.695-5.262-3.705C26.637,9.884,24.621,11.923,24.271,13.603z"/>
		<path fill-rule="evenodd" clip-rule="evenodd" fill="none" stroke="#E43A39" stroke-width="0.5" stroke-miterlimit="10" d="
			M9.109,11.744c0.086,0.971,0.16,1.885,0.24,2.802c0.15,1.783,1.047,3.296,1.746,4.885c0.551,1.253,1.068,2.521,1.549,3.803
			c0.158,0.421,0.217,0.903,0.217,1.357c0.012,3.952,0,7.897-0.005,11.848c0,0.342,0.017,0.691-0.048,1.024
			c-0.048,0.245-0.175,0.495-0.338,0.684c-0.553,0.646-1.305,0.918-2.123,1.041c-1.957,0.3-3.916,0.317-5.859-0.12
			c-0.377-0.085-0.744-0.268-1.078-0.47c-0.61-0.373-0.916-0.89-0.914-1.666c0.023-3.621-0.016-7.238-0.023-10.857
			c0-0.725-0.087-1.488,0.102-2.167c0.348-1.251,0.837-2.462,1.324-3.668c0.359-0.892,0.781-1.759,1.215-2.619
			c0.686-1.36,0.914-2.821,1.029-4.315c0.03-0.404,0.029-0.819,0.059-1.224c0.017-0.258-0.072-0.381-0.336-0.335
			c-0.357,0.062-0.453-0.153-0.51-0.441c-0.148-0.793,0.114-1.243,0.904-1.301c0.945-0.062,1.902-0.079,2.844,0.002
			c1.031,0.089,1.056,0.803,0.811,1.563c-0.025,0.078-0.17,0.146-0.267,0.167C9.509,11.763,9.359,11.744,9.109,11.744z"/>
		<path fill-rule="evenodd" clip-rule="evenodd" fill="none" stroke="#E43A39" stroke-width="0.5" stroke-miterlimit="10" d="
			M19.588,21.616c0.591,0.958,1.182,1.895,1.748,2.847c0.113,0.189,0.186,0.437,0.186,0.659c0.012,3.649,0.009,7.292,0.009,10.943
			c0,1.985-1.064,3.162-3.056,3.299c-0.733,0.052-1.49,0.042-2.213-0.08c-1.381-0.24-2.338-1.502-2.344-3.031
			c-0.018-3.754-0.008-7.505,0-11.257c0.004-0.157,0.076-0.333,0.163-0.468c0.589-0.889,1.193-1.776,1.789-2.661
			c0.043-0.064,0.073-0.129,0.124-0.217c-0.211-0.098-0.406-0.172-0.585-0.278c-0.545-0.306-0.573-0.784-0.007-1.03
			c0.521-0.229,1.1-0.405,1.664-0.435c0.768-0.035,1.542,0.089,2.318,0.145c0.023,0.002,0.052,0.009,0.074,0.019
			c0.392,0.166,0.918,0.222,0.967,0.751C20.471,21.323,19.947,21.378,19.588,21.616z"/>
		<path fill-rule="evenodd" clip-rule="evenodd" fill="none" stroke="#E43A39" stroke-width="0.5" stroke-miterlimit="10" d="
			M44.289,34.802c0,1.413,0.004,2.825-0.004,4.24c-0.005,2.029-1.256,3.277-3.289,3.271c-0.644-0.004-1.3,0.014-1.936-0.078
			c-1.183-0.172-2.069-1.132-2.306-2.407c-0.052-0.296-0.081-0.604-0.081-0.902c-0.006-2.891-0.002-5.783-0.002-8.675
			c0-0.924,0.253-1.744,0.973-2.369c0.065-0.062,0.135-0.182,0.12-0.261c-0.055-0.325,0.128-0.521,0.379-0.622
			c0.399-0.164,0.811-0.327,1.231-0.396c0.958-0.146,1.929-0.153,2.86,0.145c0.454,0.146,1.023,0.248,0.952,0.954
			c-0.005,0.06,0.084,0.131,0.136,0.187c0.671,0.691,0.955,1.536,0.962,2.476C44.296,31.844,44.289,33.32,44.289,34.802z"/>
	</g>
</g>
</svg>
