<?xml version="1.0" encoding="utf-8"?>
<!-- Generator: Adobe Illustrator 16.0.0, SVG Export Plug-In . SVG Version: 6.00 Build 0)  -->
<!DOCTYPE svg PUBLIC "-//W3C//DTD SVG 1.1//EN" "http://www.w3.org/Graphics/SVG/1.1/DTD/svg11.dtd">
<svg version="1.1" id="Layer_1" xmlns="http://www.w3.org/2000/svg" xmlns:xlink="http://www.w3.org/1999/xlink" x="0px" y="0px"
	 width="46.744px" height="50.609px" viewBox="0 0 46.744 50.609" enable-background="new 0 0 46.744 50.609" xml:space="preserve">
<g>
	<g>
		<path fill-rule="evenodd" clip-rule="evenodd" fill="none" stroke="#E43A39" stroke-width="0.5" stroke-miterlimit="10" d="
			M1.058,40.293c1.074-1.276,2.127-2.571,3.232-3.816c0.416-0.471,0.561-0.945,0.561-1.563c-0.021-6.188-0.014-12.374-0.012-18.562
			c0-1.01,0.412-1.62,1.223-1.809c0.154-0.036,0.316-0.041,0.477-0.041C12.056,14.5,17.575,14.5,23.093,14.5
			c0.115,0,0.227,0.013,0.367,0.021c0,0.449,0,0.877,0,1.359c-0.182,0-0.352,0-0.521,0c-4.777,0-9.557,0-14.334,0
			c-1.125,0-1.611,0.488-1.611,1.623c-0.002,5.1-0.002,10.197,0,15.294c0,1.123,0.492,1.617,1.623,1.617
			c8.643,0.001,17.283,0.001,25.928,0c1.135,0,1.598-0.478,1.602-1.63c0.004-1.277,0-2.557,0-3.834c0-0.156,0-0.313,0-0.491
			c0.727,0,1.402,0,2.15,0c0,0.166,0,0.333,0,0.5c-0.002,2.135-0.012,4.271,0.008,6.406c0.002,0.247,0.115,0.538,0.271,0.731
			c1.088,1.343,2.209,2.657,3.297,4c0.131,0.162,0.199,0.45,0.162,0.655c-0.182,1.079-1.037,1.812-2.143,1.879
			c-0.176,0.011-0.35,0.007-0.521,0.007c-11.795,0-23.59-0.012-35.383,0.016c-1.428,0.003-2.453-0.428-2.93-1.839
			C1.058,40.642,1.058,40.467,1.058,40.293z M15.362,40.304c4.182,0,8.26,0,12.424,0c-0.342-0.414-0.619-0.78-0.934-1.112
			c-0.113-0.118-0.314-0.21-0.475-0.21c-3.207-0.013-6.414-0.011-9.619-0.003c-0.133,0-0.307,0.034-0.387,0.12
			C16.042,39.46,15.741,39.847,15.362,40.304z M21.55,41.863c0.959,0,1.918-0.001,2.877,0c0.266,0.001,0.52-0.031,0.533-0.366
			c0.014-0.348-0.252-0.385-0.512-0.385c-1.918-0.004-3.834-0.003-5.752-0.001c-0.268,0-0.529,0.059-0.516,0.386
			c0.012,0.316,0.264,0.369,0.537,0.369C19.663,41.861,20.606,41.863,21.55,41.863z"/>
		<path fill-rule="evenodd" clip-rule="evenodd" fill="none" stroke="#E43A39" stroke-width="0.5" stroke-miterlimit="10" d="
			M45.687,16.061c-2.682,0-5.359,0-8.07,0c0-2.701,0-5.363,0-8.105c2.688,0,5.379,0,8.07,0
			C45.687,10.658,45.687,13.359,45.687,16.061z"/>
		<path fill-rule="evenodd" clip-rule="evenodd" fill="none" stroke="#E43A39" stroke-width="0.5" stroke-miterlimit="10" d="
			M41.644,26.697c-2.172,0-4.303,0-6.469,0c0-2.144,0-4.285,0-6.465c2.139,0,4.293,0,6.469,0
			C41.644,22.383,41.644,24.513,41.644,26.697z"/>
		<path fill-rule="evenodd" clip-rule="evenodd" fill="none" stroke="#E43A39" stroke-width="0.5" stroke-miterlimit="10" d="
			M31.16,13.738c1.778,0,3.54,0,5.333,0c0,1.784,0,3.548,0,5.342c-1.771,0-3.537,0-5.333,0C31.16,17.312,31.16,15.537,31.16,13.738z
			"/>
		<path fill-rule="evenodd" clip-rule="evenodd" fill="none" stroke="#E43A39" stroke-width="0.5" stroke-miterlimit="10" d="
			M32.05,8.541c1.256,0,2.48,0,3.74,0c0,1.243,0,2.468,0,3.729c-1.232,0-2.469,0-3.74,0C32.05,11.047,32.05,9.821,32.05,8.541z"/>
		<path fill-rule="evenodd" clip-rule="evenodd" fill="none" stroke="#E43A39" stroke-width="0.5" stroke-miterlimit="10" d="
			M26.731,20.097c1.264,0,2.49,0,3.742,0c0,1.236,0,2.449,0,3.7c-1.246,0-2.482,0-3.742,0
			C26.731,22.561,26.731,21.326,26.731,20.097z"/>
		<path fill-rule="evenodd" clip-rule="evenodd" fill="none" stroke="#E43A39" stroke-width="0.5" stroke-miterlimit="10" d="
			M25.239,15.359c1.229,0,2.441,0,3.695,0c0,1.227,0,2.453,0,3.713c-1.211,0-2.436,0-3.695,0
			C25.239,17.853,25.239,16.617,25.239,15.359z"/>
		<path fill-rule="evenodd" clip-rule="evenodd" fill="none" stroke="#E43A39" stroke-width="0.5" stroke-miterlimit="10" d="
			M30.175,28.018c0-1.257,0-2.473,0-3.723c1.226,0,2.451,0,3.711,0c0,1.227,0,2.464,0,3.723
			C32.651,28.018,31.438,28.018,30.175,28.018z"/>
		<path fill-rule="evenodd" clip-rule="evenodd" fill="none" stroke="#E43A39" stroke-width="0.5" stroke-miterlimit="10" d="
			M27.353,25.364c0,1.054,0,2.079,0,3.132c-1.057,0-2.092,0-3.154,0c0-1.043,0-2.067,0-3.132
			C25.237,25.364,26.271,25.364,27.353,25.364z"/>
		<path fill-rule="evenodd" clip-rule="evenodd" fill="none" stroke="#E43A39" stroke-width="0.5" stroke-miterlimit="10" d="
			M21.073,24.502c0-1.047,0-2.058,0-3.104c1.051,0,2.082,0,3.141,0c0,1.023,0,2.046,0,3.104
			C23.183,24.502,22.151,24.502,21.073,24.502z"/>
		<path fill-rule="evenodd" clip-rule="evenodd" fill="none" stroke="#E43A39" stroke-width="0.5" stroke-miterlimit="10" d="
			M22.235,25.754c0,1.041,0,2.053,0,3.102c-1.037,0-2.07,0-3.129,0c0-1.03,0-2.051,0-3.102
			C20.142,25.754,21.163,25.754,22.235,25.754z"/>
	</g>
</g>
</svg>
