<?xml version="1.0" encoding="utf-8"?>
<!-- Generator: Adobe Illustrator 16.0.0, SVG Export Plug-In . SVG Version: 6.00 Build 0)  -->
<!DOCTYPE svg PUBLIC "-//W3C//DTD SVG 1.1//EN" "http://www.w3.org/Graphics/SVG/1.1/DTD/svg11.dtd">
<svg version="1.1" id="Layer_1" xmlns="http://www.w3.org/2000/svg" xmlns:xlink="http://www.w3.org/1999/xlink" x="0px" y="0px"
	 width="46.744px" height="50.609px" viewBox="0 0 46.744 50.609" enable-background="new 0 0 46.744 50.609" xml:space="preserve">
<g>
	<g>
		<path fill-rule="evenodd" clip-rule="evenodd" fill="none" stroke="#E43A39" stroke-width="0.5" stroke-miterlimit="10" d="
			M1.073,38.641c0.16-0.005,0.32-0.015,0.479-0.015c9.635-0.001,19.27-0.001,28.904-0.001c0.17,0,0.339,0,0.517,0
			c0,1.18,0.051,2.31-0.018,3.432c-0.047,0.727-0.636,1.178-1.369,1.204c-0.521,0.02-1.042,0.004-1.484,0.004
			c-0.284-0.596-0.475-1.188-0.812-1.674c-0.952-1.372-2.331-1.91-3.941-1.618c-1.563,0.283-2.624,1.255-3.058,2.807
			c-0.113,0.404-0.271,0.505-0.671,0.502c-2.308-0.021-4.614-0.015-6.922-0.005c-0.288,0.001-0.421-0.06-0.497-0.376
			c-0.43-1.778-2.043-3.028-3.833-3.011c-1.827,0.016-3.373,1.24-3.813,3.035c-0.061,0.251-0.151,0.37-0.43,0.353
			c-0.391-0.024-0.785-0.033-1.174-0.001c-0.88,0.075-1.518-0.243-1.879-1.064C1.073,41.021,1.073,39.832,1.073,38.641z"/>
		<g>
			<path fill-rule="evenodd" clip-rule="evenodd" fill="none" stroke="#E43A39" stroke-width="0.5" stroke-miterlimit="10" d="
				M32.855,39.763c0-0.806-0.018-1.603,0.018-2.396c0.008-0.128,0.24-0.291,0.4-0.358c2.389-0.99,4.424-2.471,6.092-4.442
				c2.105-2.489,3.365-5.354,3.695-8.608c0.451-4.43-0.723-8.404-3.537-11.834c-2.563-3.12-5.875-5.021-9.89-5.633
				c-4.076-0.62-7.855,0.201-11.27,2.482c-3.43,2.291-5.659,5.479-6.659,9.492c-0.487,1.961-0.597,3.949-0.304,5.955
				c0.02,0.127,0.021,0.258,0.032,0.414c-0.833,0-1.64,0-2.446,0c-1.447-7.789,3.367-17.8,13.607-20.455
				c10.554-2.736,20.638,4.079,22.685,14.145C47.424,29.068,40.398,37.584,32.855,39.763z"/>
			<g>
				<path fill="none" stroke="#E43A39" stroke-width="0.5" stroke-miterlimit="10" d="M24.781,29.815
					c-0.399-0.396-0.877-0.598-1.444-0.593c-0.785,0.007-1.568,0.002-2.352,0c-0.14-0.002-0.278-0.017-0.459-0.028
					c0-0.308,0.019-0.584-0.004-0.854c-0.023-0.271-0.035-0.563-0.145-0.802c-0.298-0.64-0.848-0.842-1.534-0.841
					c-5.296,0.011-10.593,0.02-15.889-0.008c-0.88-0.005-1.515,0.249-1.882,1.065c0,3.367,0,6.734,0,10.103
					c0.189-0.005,0.377-0.016,0.566-0.016c9.59,0,19.182,0,28.772,0c0.184,0,0.366,0,0.538,0c0.199-1.113,0.02-1.905-0.597-2.52
					C28.502,33.481,26.641,31.649,24.781,29.815z M27.679,35.579c-0.824,0.016-1.652,0.008-2.477,0.008
					c-0.828,0-1.654-0.014-2.479,0.006c-0.382,0.008-0.504-0.139-0.499-0.515c0.017-1.23,0.019-2.463,0-3.694
					c-0.005-0.387,0.143-0.481,0.51-0.509c0.594-0.044,1.024,0.147,1.451,0.577c1.217,1.221,2.486,2.39,3.727,3.589
					c0.104,0.099,0.154,0.253,0.229,0.384C27.986,35.479,27.834,35.576,27.679,35.579z"/>
				<path fill="none" stroke="#E43A39" stroke-width="0.5" stroke-miterlimit="10" d="M35.803,26.977
					c-0.021-0.15-0.227-0.29-0.369-0.406c-1.475-1.178-2.953-2.348-4.425-3.523c-0.679-0.542-1.475-0.984-1.66-1.948
					c-0.046-0.233-0.168-0.476-0.133-0.694c0.401-2.588,0.826-5.174,1.246-7.761c0.155-0.956,0.322-1.912,0.464-2.872
					c0.088-0.584-0.254-1.001-0.792-1.006c-0.438-0.004-0.671,0.208-0.843,0.779c-1.016,3.35-2.024,6.701-3.055,10.045
					c-0.078,0.25-0.266,0.507-0.473,0.668c-0.924,0.714-1.269,1.898-0.818,2.953c0.455,1.063,1.574,1.639,2.739,1.439
					c0.179-0.03,0.399,0.029,0.567,0.115c2.061,1.059,4.112,2.132,6.169,3.198c0.141,0.074,0.283,0.158,0.436,0.197
					c0.352,0.092,0.719,0.037,0.873-0.296C35.85,27.609,35.844,27.268,35.803,26.977z M27.216,23.436
					c-0.674,0.006-1.229-0.541-1.219-1.202c0.01-0.642,0.554-1.183,1.196-1.188c0.655-0.005,1.228,0.561,1.218,1.211
					C28.405,22.903,27.872,23.43,27.216,23.436z"/>
				<path fill="none" stroke="#E43A39" stroke-width="0.5" stroke-miterlimit="10" d="M8.415,40.834
					c-1.611-0.039-3.033,1.358-3.048,2.996c-0.017,1.62,1.336,2.985,2.978,3.008c1.668,0.021,3.014-1.304,3.027-2.98
					C11.385,42.221,10.067,40.874,8.415,40.834z M8.358,45.34c-0.801-0.015-1.453-0.68-1.458-1.484
					c-0.005-0.844,0.639-1.489,1.481-1.489c0.836,0,1.498,0.66,1.49,1.489C9.866,44.666,9.163,45.356,8.358,45.34z"/>
				<path fill="none" stroke="#E43A39" stroke-width="0.5" stroke-miterlimit="10" d="M24.071,40.834
					c-1.632,0.006-2.979,1.352-2.995,2.992c-0.015,1.644,1.307,2.986,2.958,3.011c1.66,0.023,3.017-1.3,3.049-2.974
					C27.114,42.249,25.7,40.828,24.071,40.834z M24.06,45.34c-0.799-0.013-1.465-0.682-1.477-1.479
					c-0.012-0.826,0.649-1.491,1.482-1.495c0.84-0.003,1.49,0.643,1.488,1.48C25.552,44.666,24.864,45.354,24.06,45.34z"/>
			</g>
		</g>
	</g>
</g>
</svg>
