<?xml version="1.0" encoding="utf-8"?>
<!-- Generator: Adobe Illustrator 16.0.0, SVG Export Plug-In . SVG Version: 6.00 Build 0)  -->
<!DOCTYPE svg PUBLIC "-//W3C//DTD SVG 1.1//EN" "http://www.w3.org/Graphics/SVG/1.1/DTD/svg11.dtd">
<svg version="1.1" id="Layer_1" xmlns="http://www.w3.org/2000/svg" xmlns:xlink="http://www.w3.org/1999/xlink" x="0px" y="0px"
	 width="46.744px" height="50.609px" viewBox="0 0 46.744 50.609" enable-background="new 0 0 46.744 50.609" xml:space="preserve">
<g>
	<g>
		<path fill-rule="evenodd" clip-rule="evenodd" fill="none" stroke="#E43A39" stroke-width="0.5492" stroke-miterlimit="10" d="
			M21.09,36.093c2.646,0,5.292-0.009,7.937,0.004c2.268,0.011,4.007,1.532,4.321,3.747c0.257,1.81-0.966,3.795-2.705,4.42
			c-0.583,0.208-1.175,0.304-1.792,0.304c-7.748-0.004-15.496-0.021-23.244,0.009c-2.055,0.008-3.902-1.24-4.412-3.191
			c-0.026-0.102-0.022-0.237-0.154-0.291c0-0.494,0-0.989,0-1.483c0.222-0.326,0.232-0.73,0.415-1.076
			c0.84-1.589,2.143-2.429,3.948-2.438c2.638-0.012,5.276-0.008,7.914-0.011c0.101,0.01,0.201,0.026,0.302,0.026
			c2.434,0,4.867-0.002,7.3-0.003C20.977,36.103,21.034,36.098,21.09,36.093z M27.731,42.225c0.636,0.014,1.279,0.061,1.822-0.38
			c0.704-0.572,0.939-1.55,0.561-2.351c-0.396-0.836-1.229-1.215-2.253-1.025c-0.15-0.134-0.333-0.073-0.501-0.073
			c-2.352-0.005-4.703-0.004-7.054-0.004c-4.529,0.004-9.058,0.006-13.586,0.009c-0.171,0.011-0.336,0.022-0.512,0.006
			c-1.087-0.11-2.029,0.74-2.084,1.86c-0.051,1.04,0.833,1.958,1.893,1.964c0.231,0.002,0.463-0.002,0.695-0.004
			c0.174,0.004,0.349,0.01,0.523,0.011c6.644,0,13.287,0,19.931-0.001C27.354,42.236,27.542,42.229,27.731,42.225z"/>
		<path fill-rule="evenodd" clip-rule="evenodd" fill="none" stroke="#E43A39" stroke-width="0.5492" stroke-miterlimit="10" d="
			M7.219,27.628c1.379-0.011,2.759-0.035,4.137-0.022c0.378,0.004,0.496-0.09,0.49-0.481c-0.021-1.815-0.01-3.631-0.008-5.447
			c0.002-1.114,0.482-1.648,1.592-1.782l0.043,0l0.042,0.005c0.114,0.129,0.267,0.081,0.403,0.083
			c0.587,0.005,1.174,0.005,1.761,0.005l0.025-0.007c-0.004,1.814-0.023,3.628-0.009,5.441c0.011,1.325,0.672,2.287,1.873,2.774
			c1.702,0.689,3.443,1.287,5.173,1.908c0.459,0.165,0.894,0.421,1.401,0.439c0.002,0.958-0.007,1.917,0.013,2.874
			c0.006,0.301-0.105,0.362-0.379,0.358c-0.9-0.014-1.8-0.005-2.7-0.003c-0.019,0.011-0.04,0.013-0.061,0.007
			c-2.488,0-4.976,0-7.464,0.001c-0.067-0.003-0.135-0.005-0.203-0.008c-4.104-0.003-8.206-0.005-12.309-0.007
			c0-1.018,0-2.035,0-3.053c1.236-0.001,2.471,0.005,3.706-0.006c0.921-0.008,1.661-0.373,2.143-1.182
			C7.239,28.938,7.249,28.284,7.219,27.628z"/>
		<path fill-rule="evenodd" clip-rule="evenodd" fill="none" stroke="#E43A39" stroke-width="0.5492" stroke-miterlimit="10" d="
			M39.424,9.894c0.507-1.171,1.021-2.34,1.513-3.518c0.106-0.255,0.239-0.343,0.513-0.343c1.166,0.001,1.166-0.007,1.529,1.083
			c0.852,2.559,1.702,5.118,2.557,7.677c0.045,0.135,0.111,0.263,0.168,0.393c0,0.291,0,0.582,0,0.872
			c-0.218,0.607-0.179,1.25-0.24,1.875c-0.31,3.19-0.59,6.383-0.881,9.575c-0.141,1.56-0.283,3.119-0.424,4.679
			c-1.002,0.008-2.003,0.014-3.005,0.021c-0.021,0.003-0.042,0.001-0.063-0.006c-0.297-2.664-0.592-5.327-0.893-7.991
			c-0.338-3.008-0.68-6.016-1.02-9.024c-0.04-0.346-0.071-0.692-0.105-1.039c-0.013-0.125,0.015-0.272-0.167-0.307
			c0.12-0.414-0.006-0.824-0.049-1.229c-0.072-0.665-0.146-1.312,0.234-1.919C39.244,10.449,39.355,10.179,39.424,9.894z"/>
		<path fill-rule="evenodd" clip-rule="evenodd" fill="none" stroke="#E43A39" stroke-width="0.5492" stroke-miterlimit="10" d="
			M7.219,27.628c0.03,0.656,0.021,1.31-0.329,1.897c-0.481,0.809-1.221,1.174-2.143,1.182c-1.235,0.011-2.47,0.005-3.706,0.006
			c0-0.406,0-0.814,0-1.222c0.22-0.511,0.441-1.021,0.912-1.365c0.377-0.277,0.782-0.477,1.262-0.485
			c0.852,0.005,1.702,0.021,2.553,0.01c0.428-0.005,0.861,0.068,1.286-0.05C7.108,27.608,7.164,27.617,7.219,27.628z"/>
		<path fill-rule="evenodd" clip-rule="evenodd" fill="none" stroke="#E43A39" stroke-width="0.5492" stroke-miterlimit="10" d="
			M39.424,9.894c-0.068,0.285-0.18,0.555-0.332,0.799c-0.38,0.607-0.307,1.254-0.234,1.919c0.043,0.405,0.169,0.815,0.049,1.229
			c-1.304,0.065-2.608,0.132-3.911,0.195c-3.249,0.156-6.499,0.31-9.749,0.461c-0.198,0.008-0.357,0.049-0.502,0.202
			c-1.651,1.736-3.308,3.468-4.964,5.201c-1.364,0-2.726-0.001-4.089-0.002c-0.725,0.001-1.45,0.001-2.175,0.002l-0.042-0.005
			l-0.043,0c0.073-0.088,0.139-0.183,0.219-0.263c3.144-3.147,6.292-6.292,9.432-9.442c0.186-0.187,0.367-0.286,0.642-0.286
			C28.957,9.907,34.19,9.899,39.424,9.894z"/>
		<path fill-rule="evenodd" clip-rule="evenodd" fill="none" stroke="#E43A39" stroke-width="0.5492" stroke-miterlimit="10" d="
			M24.143,30.543c-0.507-0.019-0.941-0.274-1.401-0.439c-1.73-0.621-3.471-1.219-5.173-1.908c-1.201-0.487-1.862-1.449-1.873-2.774
			c-0.015-1.813,0.004-3.627,0.009-5.441c1.446,0.002,2.894,0.004,4.341,0.006c2.199,0.148,3.602,1.813,4.018,3.731
			c0.122,0.557,0.091,1.125,0.09,1.69C24.15,27.121,24.146,28.833,24.143,30.543z"/>
		<path fill-rule="evenodd" clip-rule="evenodd" fill="none" stroke="#E43A39" stroke-width="0.5492" stroke-miterlimit="10" d="
			M44.198,35.33c0.329,0.989,0.664,1.979,0.985,2.971c0.443,1.361,0.401,2.695-0.343,3.942c-0.937,1.567-2.372,2.294-4.171,2.321
			c-1.248,0.021-2.498,0.006-3.746,0.004c-0.458,0-0.461-0.008-0.251-0.431c1.368-2.738,2.738-5.476,4.105-8.215
			c0.097-0.193,0.172-0.398,0.257-0.598c0.041,0,0.081-0.001,0.122-0.001c0.967,0,1.933,0,2.899,0
			C44.103,35.327,44.151,35.328,44.198,35.33z"/>
		<path fill-rule="evenodd" clip-rule="evenodd" fill="none" stroke="#E43A39" stroke-width="0.5492" stroke-miterlimit="10" d="
			M13.351,36.026c0-0.752,0-1.504,0-2.254c0.068,0.003,0.135,0.005,0.203,0.008c0.07,0.07,0.161,0.052,0.246,0.052
			c2.307,0,4.616,0.001,6.923-0.002c0.099,0,0.365,1.488,0.37,2.263c-0.058,0.005-0.114,0.01-0.171,0.016
			c-0.158-0.116-0.338-0.06-0.506-0.06C18.059,36.038,15.705,36.033,13.351,36.026z"/>
		<path fill-rule="evenodd" clip-rule="evenodd" fill="none" stroke="#E43A39" stroke-width="0.5492" stroke-miterlimit="10" d="
			M7.053,27.601c-0.424,0.118-0.857,0.045-1.286,0.05c-0.851,0.011-1.701-0.005-2.553-0.01c0.247-0.125,0.511-0.061,0.766-0.061
			C5.004,27.579,6.029,27.593,7.053,27.601z"/>
		<path fill-rule="evenodd" clip-rule="evenodd" fill="none" stroke="#E43A39" stroke-width="0.5492" stroke-miterlimit="10" d="
			M6.72,38.4c4.528-0.003,9.057-0.005,13.586-0.009c2.351,0,4.702-0.001,7.054,0.004c0.167,0,0.351-0.061,0.5,0.073
			c-1.413,0.366-1.902,2.086-0.896,3.13c0.232,0.241,0.491,0.443,0.768,0.626c-0.189,0.004-0.378,0.012-0.566,0.012
			c-6.644,0.001-13.287,0.001-19.931,0.001c-0.174-0.001-0.349-0.007-0.523-0.011c0.095-0.062,0.188-0.127,0.285-0.186
			c0.843-0.516,1.171-1.388,0.902-2.336C7.718,39.069,7.257,38.705,6.72,38.4z"/>
		<path fill-rule="evenodd" clip-rule="evenodd" fill="none" stroke="#E43A39" stroke-width="0.5492" stroke-miterlimit="10" d="
			M6.72,38.4c0.537,0.305,0.998,0.669,1.178,1.305c0.269,0.948-0.059,1.82-0.902,2.336c-0.097,0.059-0.19,0.124-0.285,0.186
			c-0.231,0.002-0.463,0.006-0.695,0.004c-1.06-0.006-1.944-0.924-1.893-1.964c0.056-1.12,0.997-1.971,2.084-1.86
			C6.384,38.423,6.549,38.411,6.72,38.4z"/>
		<path fill-rule="evenodd" clip-rule="evenodd" fill="none" stroke="#E43A39" stroke-width="0.5492" stroke-miterlimit="10" d="
			M27.731,42.225c-0.277-0.183-0.536-0.385-0.768-0.626c-1.006-1.044-0.517-2.764,0.896-3.13c1.025-0.189,1.858,0.189,2.254,1.025
			c0.378,0.801,0.144,1.778-0.561,2.351C29.01,42.285,28.368,42.238,27.731,42.225z"/>
		<path fill-rule="evenodd" clip-rule="evenodd" fill="none" stroke="#E43A39" stroke-width="0.5492" stroke-miterlimit="10" d="
			M13.351,36.026c2.354,0.007,4.708,0.012,7.063,0.022c0.168,0,0.349-0.057,0.506,0.06c-2.433,0.001-4.867,0.003-7.3,0.003
			c-0.101,0-0.201-0.017-0.302-0.026C13.315,36.058,13.326,36.038,13.351,36.026z"/>
		
			<rect x="40.085" y="32.209" fill-rule="evenodd" clip-rule="evenodd" fill="none" stroke="#E43A39" stroke-width="0.5492" stroke-miterlimit="10" width="4.925" height="2.955"/>
	</g>
</g>
</svg>
