<?xml version="1.0" encoding="utf-8"?>
<!-- Generator: Adobe Illustrator 16.0.0, SVG Export Plug-In . SVG Version: 6.00 Build 0)  -->
<!DOCTYPE svg PUBLIC "-//W3C//DTD SVG 1.1//EN" "http://www.w3.org/Graphics/SVG/1.1/DTD/svg11.dtd">
<svg version="1.1" id="Layer_1" xmlns="http://www.w3.org/2000/svg" xmlns:xlink="http://www.w3.org/1999/xlink" x="0px" y="0px"
	 width="46.744px" height="50.609px" viewBox="0 0 46.744 50.609" enable-background="new 0 0 46.744 50.609" xml:space="preserve">
<path fill-rule="evenodd" clip-rule="evenodd" fill="none" stroke="#E43A39" stroke-width="0.5" stroke-miterlimit="10" d="
	M1.316,44.163c0-9.189,0-18.378,0-27.567c0.296-0.547,0.52-1.155,0.908-1.628c0.666-0.803,1.622-1.016,2.635-1.016
	c4.234,0.005,8.471,0,12.705,0c0.162,0,0.324,0,0.553,0c-0.125-0.213-0.197-0.353-0.275-0.486c-1.451-2.371-2.898-4.746-4.346-7.121
	c-0.104-0.172-0.211-0.343-0.287-0.528c-0.363-0.873,0.18-1.837,1.111-1.986c0.734-0.116,1.229,0.232,1.598,0.84
	c1.807,2.978,3.627,5.947,5.43,8.929c0.16,0.265,0.336,0.366,0.646,0.362c0.918-0.019,1.838-0.019,2.756,0
	c0.313,0.004,0.484-0.097,0.646-0.362c1.496-2.482,3.008-4.949,4.516-7.421C30.27,5.589,30.615,4.99,31,4.424
	c0.334-0.497,0.83-0.687,1.422-0.594c0.58,0.093,0.965,0.432,1.148,0.979c0.17,0.511,0.025,0.975-0.254,1.428
	c-1.48,2.417-2.957,4.843-4.432,7.27c-0.078,0.125-0.148,0.254-0.258,0.445c0.256,0,0.426,0,0.596,0c4.219,0,8.439,0.005,12.66,0
	c1.166,0,2.195,0.325,2.891,1.309c0.283,0.398,0.441,0.885,0.654,1.335c0,9.189,0,18.378,0,27.567
	c-0.297,0.546-0.52,1.154-0.908,1.624c-0.664,0.802-1.619,1.02-2.637,1.015c-4.693,0-9.385,0-14.076,0c-7.635,0-15.268,0-22.902,0
	c-0.998,0.005-1.95-0.176-2.616-0.955C1.872,45.359,1.634,44.729,1.316,44.163z M19.322,41.49c3.604,0,7.205,0,10.811,0
	c1.447,0,2.113-0.662,2.113-2.096c0-6.011,0-12.027,0-18.044c0-1.411-0.67-2.083-2.084-2.083c-7.178,0-14.355,0-21.533,0
	c-1.457,0-2.115,0.649-2.115,2.092c-0.002,6.016-0.002,12.033,0,18.048c0,1.42,0.666,2.082,2.084,2.082
	C12.172,41.49,15.746,41.49,19.322,41.49z M35.688,24.603c0.006,1.632,1.338,2.969,2.984,2.991c1.629,0.022,3.018-1.355,3.027-3.001
	c0.008-1.642-1.369-3.015-3.018-3.011C37.02,21.586,35.678,22.941,35.688,24.603z M38.646,39.172
	c1.654,0.023,3.006-1.294,3.053-2.969c0.041-1.614-1.332-3.011-2.99-3.039c-1.613-0.027-3,1.326-3.021,2.954
	C35.664,37.784,36.99,39.153,38.646,39.172z"/>
</svg>
