<?xml version="1.0" encoding="utf-8"?>
<!-- Generator: Adobe Illustrator 16.0.0, SVG Export Plug-In . SVG Version: 6.00 Build 0)  -->
<!DOCTYPE svg PUBLIC "-//W3C//DTD SVG 1.1//EN" "http://www.w3.org/Graphics/SVG/1.1/DTD/svg11.dtd">
<svg version="1.1" id="Layer_1" xmlns="http://www.w3.org/2000/svg" xmlns:xlink="http://www.w3.org/1999/xlink" x="0px" y="0px"
	 width="46.744px" height="50.609px" viewBox="0 0 46.744 50.609" enable-background="new 0 0 46.744 50.609" xml:space="preserve">
<path fill-rule="evenodd" clip-rule="evenodd" fill="none" stroke="#E43A39" stroke-width="0.5" stroke-miterlimit="10" d="
	M34.528,1.734c5.199-0.023,8.468,2.125,10.367,6.141c2.148,4.521,1.712,9.036-1.666,12.688
	c-8.001,8.593-16.172,17.022-24.422,25.373c-3.97,4.024-10.617,3.876-14.695,0.023c-4.342-4.102-4.888-11.566-0.778-15.955
	c7.97-8.531,16.143-16.875,24.268-25.25C29.641,2.668,32.162,1.516,34.528,1.734z M16.004,19.745
	c-0.872,0.996-1.603,1.853-2.366,2.669c-3.128,3.362-6.476,6.539-9.325,10.11c-2.724,3.41-1.945,8.625,1.214,11.66
	c3.067,2.942,7.799,3.486,10.929,0.669c4.187-3.767,7.969-7.969,12.063-12.111C24.333,28.4,20.333,24.244,16.004,19.745z"/>
</svg>
