<?xml version="1.0" encoding="utf-8"?>
<!-- Generator: Adobe Illustrator 16.0.0, SVG Export Plug-In . SVG Version: 6.00 Build 0)  -->
<!DOCTYPE svg PUBLIC "-//W3C//DTD SVG 1.1//EN" "http://www.w3.org/Graphics/SVG/1.1/DTD/svg11.dtd">
<svg version="1.1" id="Layer_1" xmlns="http://www.w3.org/2000/svg" xmlns:xlink="http://www.w3.org/1999/xlink" x="0px" y="0px"
	 width="46.744px" height="50.609px" viewBox="0 0 46.744 50.609" enable-background="new 0 0 46.744 50.609" xml:space="preserve">
<g>
	<g>
		<path fill="none" stroke="#E43A39" stroke-width="0.5" stroke-miterlimit="10" d="M9.637,12.561L9.016,8.809H6.772
			C6.438,7.521,5.276,6.566,3.879,6.566c-1.65,0-2.997,1.346-2.997,2.996s1.347,2.998,2.997,2.998c1.397,0,2.559-0.961,2.894-2.25
			h0.966l0.38,2.25H8.084l3.877,19.495c-1.847,0.151-3.383,1.566-3.566,3.36c-0.104,1.047,0.24,2.104,0.954,2.888
			c0.708,0.793,1.726,1.241,2.773,1.241h1.507c0,2.475,2.012,4.498,4.491,4.498s4.493-2.023,4.493-4.498h8.248
			c0,2.475,2.02,4.498,4.497,4.498c2.479,0,4.498-2.023,4.498-4.498h3.004c0.412,0,0.745-0.334,0.745-0.747
			c0-0.415-0.333-0.748-0.745-0.748h-3.269c-0.615-1.749-2.278-3.003-4.233-3.003c-1.949,0-3.612,1.254-4.232,3.003H22.36
			c-0.622-1.749-2.29-3.003-4.24-3.003c-1.956,0-3.618,1.254-4.239,3.003h-1.759c-0.628,0-1.231-0.275-1.663-0.747
			c-0.432-0.482-0.639-1.094-0.569-1.737c0.115-1.128,1.155-2.015,2.376-2.015h0.633l16.709-0.011h8.483h0.006h4.026
			c2.059,0,3.739-1.68,3.739-3.735V12.549L9.637,12.561z M3.879,11.064c-0.828,0-1.496-0.678-1.496-1.502
			c0-0.834,0.668-1.5,1.496-1.5s1.501,0.666,1.501,1.5C5.38,10.387,4.707,11.064,3.879,11.064L3.879,11.064z M35.358,36.542
			c1.657,0,3.002,1.347,3.002,3.003c0,1.657-1.345,2.99-3.002,2.99c-1.651,0-2.991-1.333-2.991-2.99
			C32.367,37.889,33.707,36.542,35.358,36.542L35.358,36.542z M18.12,36.542c1.651,0,2.997,1.347,2.997,3.003
			c0,1.657-1.346,2.99-2.997,2.99c-1.649,0-2.996-1.333-2.996-2.99C15.124,37.889,16.471,36.542,18.12,36.542L18.12,36.542z
			 M44.367,25.456l-6.581,6.577 M43.799,28.506l-3.212,3.21 M44.367,16.978l-15.07,15.067 M38.81,14.056L20.818,32.045
			 M21.848,14.056l-9.957,9.956 M30.694,14.461L13.68,30.654 M13.363,14.056l-2.875,2.876 M42.123,32.033"/>
	</g>
</g>
</svg>
