<?xml version="1.0" encoding="utf-8"?>
<!-- Generator: Adobe Illustrator 16.0.0, SVG Export Plug-In . SVG Version: 6.00 Build 0)  -->
<!DOCTYPE svg PUBLIC "-//W3C//DTD SVG 1.1//EN" "http://www.w3.org/Graphics/SVG/1.1/DTD/svg11.dtd">
<svg version="1.1" id="Layer_1" xmlns="http://www.w3.org/2000/svg" xmlns:xlink="http://www.w3.org/1999/xlink" x="0px" y="0px"
	 width="100px" height="100px" viewBox="0 0 100 100" enable-background="new 0 0 100 100" xml:space="preserve">
<g>
	<path fill="none" stroke="#231F20" stroke-width="1.1111" stroke-miterlimit="10" d="M94.437,89.983H5.526
		c-2.444,0-4.455,2.014-4.455,4.455c0,2.445,2.011,4.459,4.455,4.459h88.91c2.443,0,4.453-2.014,4.453-4.459
		C98.876,91.997,96.88,89.983,94.437,89.983L94.437,89.983z M94.437,89.983"/>
	<path fill="none" stroke="#231F20" stroke-width="1.1111" stroke-miterlimit="10" d="M11.088,78.428
		c-2.478,0-4.455,2.012-4.455,4.455c0,2.445,1.977,4.456,4.455,4.456h77.789c2.443,0,4.457-2.011,4.457-4.456
		c0-2.443-2.014-4.455-4.457-4.455H87.77V38.429h1.107c1.237,0,2.227-1.004,2.227-2.21c0-1.24-0.989-2.245-2.227-2.245H11.088
		c-1.239,0-2.211,1.005-2.211,2.245c0,1.206,0.973,2.21,2.211,2.21h1.107v39.999H11.088z M78.86,38.429v39.999H65.526V38.429H78.86z
		 M56.647,38.429v39.999H43.314V38.429H56.647z M21.088,38.429h13.333v39.999H21.088V38.429z M21.088,38.429"/>
	<path fill="none" stroke="#231F20" stroke-width="1.1111" stroke-miterlimit="10" d="M5.526,29.987h88.945
		c2.461,0,4.457-1.977,4.457-4.455c0-1.943-1.263-3.585-3.021-4.188L51.791,1.479c-1.138-0.502-2.479-0.502-3.616,0L3.701,21.478
		c-1.91,0.872-2.964,2.949-2.53,4.992C1.607,28.513,3.417,29.987,5.526,29.987L5.526,29.987z M5.526,29.987"/>
</g>
</svg>
