<?xml version="1.0" encoding="utf-8"?>
<!-- Generator: Adobe Illustrator 16.0.0, SVG Export Plug-In . SVG Version: 6.00 Build 0)  -->
<!DOCTYPE svg PUBLIC "-//W3C//DTD SVG 1.1//EN" "http://www.w3.org/Graphics/SVG/1.1/DTD/svg11.dtd">
<svg version="1.1" id="Layer_1" xmlns="http://www.w3.org/2000/svg" xmlns:xlink="http://www.w3.org/1999/xlink" x="0px" y="0px"
	 width="100px" height="100px" viewBox="0 0 100 100" enable-background="new 0 0 100 100" xml:space="preserve">
<g>
	<path fill-rule="evenodd" clip-rule="evenodd" fill="none" stroke="#231F20" stroke-width="1.0938" stroke-miterlimit="10" d="
		M56.074,98.698c-4.052,0-8.113,0-12.17,0c-0.248-0.038-0.498-0.106-0.743-0.12c-5.089-0.348-10.201-0.497-15.262-1.092
		c-4.662-0.544-9.3-1.465-13.903-2.425c-3.13-0.668-6.148-1.76-8.828-3.597c-1.722-1.188-2.751-2.649-2.581-4.916
		C2.886,82.49,4.5,79.037,7.043,75.974c3.812-4.596,8.745-7.633,14.151-9.979c0.248-0.115,0.769,0.086,1.004,0.313
		c5.231,5.029,11.37,8.39,18.406,10.158c0.421,0.101,0.902,0.466,1.128,0.84c3.421,5.788,11.35,6.438,15.604,1.239
		c3.352-4.076,2.749-9.595-0.81-12.88c-3.962-3.669-9.763-3.522-13.333,0.214c-0.504,0.538-0.906,0.57-1.542,0.376
		c-4.615-1.367-8.661-3.698-12.09-7.068c-7.753-7.619-10.171-16.9-8.287-27.409c1.008-5.584,3.675-10.434,7.676-14.463
		c6.706-6.759,14.888-9.644,24.333-8.712c5.425,0.536,10.343,2.568,14.663,5.96c6.644,5.217,10.479,12.071,11.258,20.454
		c0.77,8.323-1.684,15.895-6.285,22.788c-1.126,1.672-2.436,3.221-3.662,4.822c0.041,0.034,0.081,0.092,0.133,0.101
		c0.269,0.088,0.554,0.154,0.826,0.227c6.793,1.884,13.228,4.555,18.737,9.079c4.191,3.448,7.335,7.574,8.302,13.092
		c0.55,3.145-0.142,4.868-2.851,6.599c-2.75,1.778-5.832,2.735-8.964,3.508c-7.624,1.883-15.386,2.709-23.212,3.086
		C60.18,98.419,58.129,98.572,56.074,98.698z"/>
	<path fill-rule="evenodd" clip-rule="evenodd" fill="none" stroke="#231F20" stroke-width="1.0938" stroke-miterlimit="10" d="
		M52.846,1.302c1.019,0.173,2.042,0.346,3.065,0.529c10.238,1.744,18.286,6.98,24.205,15.444c3.295,4.715,5.278,9.992,6.001,15.718
		c0.188,1.555,0.284,3.127,0.444,4.755c-1.247,0-2.307,0-3.448,0c-0.135-1.449-0.198-2.897-0.401-4.324
		C81.238,23.229,76.141,15.329,67.49,9.798c-6.452-4.129-13.569-5.755-21.143-4.847C35.852,6.203,27.71,11.406,21.98,20.307
		c-2.76,4.277-4.396,8.999-4.858,14.036c-0.88,9.656,1.833,18.219,8.332,25.482c4.82,5.39,10.827,8.766,17.879,10.293
		c0.656,0.142,0.977,0.027,1.319-0.605c1.463-2.648,4.426-3.733,7.34-2.781c2.787,0.91,4.402,3.563,4.082,6.706
		c-0.266,2.622-2.637,4.942-5.359,5.243c-2.974,0.338-5.696-1.423-6.595-4.298c-0.165-0.544-0.434-0.731-0.972-0.845
		c-9.375-1.878-16.946-6.674-22.628-14.351c-3.679-4.975-5.877-10.574-6.678-16.737c-0.992-7.652,0.337-14.888,3.918-21.69
		c3.553-6.738,8.78-11.87,15.548-15.395c4.172-2.173,8.618-3.448,13.297-3.903c0.184-0.02,0.358-0.1,0.534-0.16
		C49.04,1.302,50.941,1.302,52.846,1.302z"/>
</g>
</svg>
