<?xml version="1.0" encoding="utf-8"?>
<!-- Generator: Adobe Illustrator 16.0.0, SVG Export Plug-In . SVG Version: 6.00 Build 0)  -->
<!DOCTYPE svg PUBLIC "-//W3C//DTD SVG 1.1//EN" "http://www.w3.org/Graphics/SVG/1.1/DTD/svg11.dtd">
<svg version="1.1" id="Layer_1" xmlns="http://www.w3.org/2000/svg" xmlns:xlink="http://www.w3.org/1999/xlink" x="0px" y="0px"
	 width="100px" height="100px" viewBox="0 0 100 100" enable-background="new 0 0 100 100" xml:space="preserve">
<path fill-rule="evenodd" clip-rule="evenodd" fill="none" stroke="#231F20" stroke-width="1.0983" stroke-miterlimit="10" d="
	M1.553,91.425c0-20.187,0-40.371,0-60.555c0.647-1.202,1.141-2.537,1.995-3.578c1.463-1.763,3.561-2.23,5.788-2.23
	c9.301,0.011,18.607,0,27.908,0c0.356,0,0.712,0,1.214,0c-0.274-0.467-0.434-0.774-0.604-1.068
	c-3.188-5.208-6.367-10.424-9.546-15.641c-0.228-0.377-0.463-0.754-0.631-1.16c-0.798-1.918,0.395-4.035,2.441-4.363
	c1.613-0.254,2.699,0.509,3.509,1.844c3.969,6.541,7.967,13.063,11.927,19.614c0.352,0.583,0.738,0.805,1.42,0.796
	c2.016-0.042,4.037-0.042,6.053,0c0.687,0.009,1.064-0.213,1.421-0.796c3.286-5.452,6.606-10.872,9.918-16.302
	c0.785-1.293,1.545-2.61,2.391-3.852c0.733-1.091,1.822-1.509,3.123-1.305c1.274,0.204,2.119,0.948,2.522,2.15
	c0.373,1.122,0.056,2.141-0.558,3.137c-3.252,5.311-6.495,10.639-9.734,15.968c-0.172,0.274-0.327,0.559-0.566,0.977
	c0.563,0,0.935,0,1.309,0c9.267,0,18.538,0.011,27.81,0c2.561,0,4.821,0.714,6.35,2.875c0.621,0.875,0.97,1.943,1.437,2.934
	c0,20.184,0,40.368,0,60.555c-0.651,1.198-1.142,2.535-1.995,3.567c-1.458,1.761-3.557,2.239-5.791,2.229
	c-10.311,0-20.615,0-30.921,0c-16.77,0-33.536,0-50.307,0c-2.192,0.011-4.286-0.387-5.749-2.098
	C2.771,94.052,2.248,92.666,1.553,91.425z M41.104,85.554c7.916,0,15.827,0,23.747,0c3.179,0,4.643-1.454,4.643-4.604
	c0-13.204,0-26.42,0-39.636c0-3.1-1.472-4.576-4.578-4.576c-15.767,0-31.533,0-47.3,0c-3.201,0-4.646,1.427-4.646,4.596
	c-0.004,13.215-0.004,26.431,0,39.646c0,3.119,1.463,4.573,4.578,4.573C25.397,85.554,33.249,85.554,41.104,85.554z M77.052,48.458
	c0.013,3.584,2.939,6.521,6.557,6.57c3.577,0.05,6.627-2.977,6.649-6.592c0.017-3.606-3.008-6.623-6.629-6.613
	C79.979,41.832,77.03,44.808,77.052,48.458z M83.552,80.46c3.634,0.053,6.603-2.842,6.706-6.52c0.09-3.547-2.927-6.614-6.569-6.677
	c-3.543-0.06-6.589,2.913-6.637,6.489C77,77.413,79.914,80.42,83.552,80.46z"/>
</svg>
